<svg xmlns="http://www.w3.org/2000/svg" width="734.221" height="286.752" viewBox="0 0 734.221 286.752"><g transform="translate(-5969 -313.562)"><g transform="translate(5969 313.562)"><path d="M634.518,242.682a377.62,377.62,0,0,0-63.227-21.19c-20.755-4.9-51.314-11.882-89.691-9.307-80.415,5.367-132.474,48.522-142.495,57.8a182.486,182.486,0,0,0-31.924,40.145,62.19,62.19,0,0,0-4.56,10.052q213.6,89.117,427.2,178.2c6.019-15.729,14.12-42.9,29.2-66.283C771.149,412.737,790.8,390.317,810.1,378c9.949-6.14,39.63-22.6,69.506-12.116,1.861.651,3.257,1.241,3.351,1.024C883.829,364.421,746.98,290.428,634.518,242.682Z" transform="translate(-302.62 -211.632)" fill="#cbbe6b"/><path d="M804.6,326.062C688.476,291.035,574,248.1,456.942,217.57a102.873,102.873,0,0,1-14.674,6.918,99.262,99.262,0,0,1-28.729,6.205,11.29,11.29,0,0,0-1.768.155,3.7,3.7,0,0,0-.9.186c-.4,1.4,309.591,119.133,335.155,130.3.435.186,1.676.745,3.382,1.3,16.35,5.46,31.18-1.706,33.072-2.637,0,0,9.928-5.026,26.743-31.862a.108.108,0,0,0,.031-.062C809.315,327.427,805.468,326.31,804.6,326.062Z" transform="translate(-75.033 -199.147)" fill="#cbbe6b"/></g></g></svg>