<svg height="71.325" viewBox="0 0 104.166 71.325" width="104.166" xmlns="http://www.w3.org/2000/svg"><g fill="#cbbe6b"><path d="m344.633 215.562a47.8 47.8 0 0 0 -8-2.682 36.575 36.575 0 0 0 -11.353-1.178 30.821 30.821 0 0 0 -18.037 7.316 23.1 23.1 0 0 0 -4.043 5.082c-.2.35-.342.64-.424.809l-.153.463q27.038 11.281 54.077 22.557a44.841 44.841 0 0 1 3.931-7.878c2.235-3.542 3.711-5.879 6.554-7.517.868-.5 4.693-2.706 8.475-1.378.236.082.412.157.424.13.107-.314-17.216-9.68-31.451-15.724z" transform="translate(-297.338 -211.632)"/><path d="m460.709 231.3c-14.7-4.434-29.19-9.869-44.008-13.733a13.02 13.02 0 0 1 -1.858.876 12.565 12.565 0 0 1 -3.637.785 1.428 1.428 0 0 0 -.224.02.47.47 0 0 0 -.114.024c-.051.177 39.189 15.08 42.425 16.494.055.024.212.094.428.165a5.782 5.782 0 0 0 4.186-.334s1.257-.636 3.385-4.033a.014.014 0 0 0 0-.008c.014-.08-.473-.221-.583-.256z" transform="translate(-363.077 -215.238)"/><g stroke="#cbbe6b" stroke-miterlimit="10" stroke-width=".5"><path d="m309.762 325.287v-2.735a3.171 3.171 0 0 0 -.292-1.542l.093-.11c1.909.314 2.258.424 2.258.733 0 .239-.163.331-.844.513v3.141h4.94l.605-.733h.256c1.065.809 1.286.99 1.286 1.211 0 .2-.186.331-.7.53v2.4l.11 3.358-.186.181-1.158.035v-1.25h-5.16v2.147l.093 4.259-.181.186-1.211.035.093-4.48v-2.147h-4.94v1.118l-.181.186-1.14.035.11-3.433v-2.514a5.891 5.891 0 0 0 -.256-1.856l.11-.11c.588.274 1.1.513 1.635.826h4.657zm-4.94.623v4.5h4.94v-4.5zm6.15 4.5h5.16v-4.5h-5.16z" transform="translate(-303.078 -266.95)"/><path d="m353.392 328.47a16.824 16.824 0 0 1 -3.433 5.783l-.349-.274a24.756 24.756 0 0 0 3.543-8.426h-1.8l-1.286.11-.221-.844 1.507.11h1.984v-2.554a3.171 3.171 0 0 0 -.292-1.542l.093-.11c1.8.314 2.147.424 2.147.733 0 .239-.164.331-.844.513v2.956h1.1l.733-.954h.256l1.1 1.14v.442h-3.194v2.077c1.838.809 2.845 1.705 2.845 2.479 0 .46-.239.7-.588.7-.239 0-.424-.128-.663-.588a7.4 7.4 0 0 0 -1.6-2v4.736l.053 4.462-.186.186-1.1.035zm11.178-3.526.716-1.082h.256l1.228 1.268v.442h-2.88v5.563l.075 4.754c0 1.1-.751 1.652-2.682 1.705-.053-.623-.292-.9-1.489-1.321l.093-.424a14.956 14.956 0 0 0 2.258.239.5.5 0 0 0 .57-.57v-9.95h-3.287l-1.3.11-.2-.844 1.507.11h3.287v-2.644a3.171 3.171 0 0 0 -.292-1.542l.093-.11c1.873.314 2.222.424 2.222.733 0 .239-.164.331-.844.513v3.049zm-6.243 2.9c1.816 1.122 2.753 2.293 2.753 3.194 0 .512-.314.879-.68.879s-.57-.146-.773-.919a6.359 6.359 0 0 0 -1.635-2.845z" transform="translate(-328.894 -266.811)"/><path d="m407.965 330.876a4.1 4.1 0 0 0 -.2-1.431 3.261 3.261 0 0 1 -.919.181c-.018-.442-.221-.663-.99-.844l.018-.4c.623.075 1.012.11 1.193.11.256 0 .349-.093.349-.4v-1.431h-2v.809l.053 2.461-.186.186-.937.035.075-2.682v-.809h-1.856v2.717l-.186.181-.937.035.093-1.4v-1.228a3.117 3.117 0 0 0 -.274-1.467l.11-.11a13.249 13.249 0 0 1 1.339.641h1.705v-1.1h-2.828l-1.286.11-.221-.844 1.507.11h2.828v-1.193h-2.4a4.855 4.855 0 0 1 -1.015 1.029l-.349-.274a6.711 6.711 0 0 0 .862-1.688 3.524 3.524 0 0 0 .221-.99l.128-.075c1.25.4 1.4.57 1.4.733 0 .186-.221.256-.641.256a3.224 3.224 0 0 1 -.2.384h2v-.163a3.112 3.112 0 0 0 -.221-1.4l.093-.11c1.542.274 1.8.349 1.8.588 0 .2-.146.292-.68.442v.641h1.67l.588-.7h.256l.954.879v.442h-3.481v1.193h2.333l.605-.773h.256l1.065.954v.442h-4.259v1.1h1.8l.495-.53h.256c.862.623.954.733.954.879 0 .163-.11.239-.513.477v.513l.035.826a1.243 1.243 0 0 1 -.4 1.082c1.489.221 1.8.331 1.8.552 0 .2-.181.314-.733.459v.588h5.271l.809-.954h.256l1.228 1.14v.442h-7.438a9.525 9.525 0 0 0 2.147 2.4 9.673 9.673 0 0 0 1.449-1.268 3.123 3.123 0 0 0 .495-.716l.128-.035c1.193.826 1.432 1.029 1.432 1.268 0 .146-.11.221-.384.221a3.879 3.879 0 0 1 -.716-.075 9.441 9.441 0 0 1 -1.926.937 13.363 13.363 0 0 0 4.957 1.909l-.035.4a1.265 1.265 0 0 0 -1.193.937 11.954 11.954 0 0 1 -6.974-5.975h-.075a18.279 18.279 0 0 1 -2.7 1.873v2.479c1.414-.186 3.009-.46 4.5-.809l.11.424a43.469 43.469 0 0 1 -6.627 1.816c-.093.535-.163.7-.4.7-.256 0-.384-.163-1.211-1.688l.075-.146a8.7 8.7 0 0 0 1.524-.035c.292-.035.588-.075.919-.11v-2.054a22.276 22.276 0 0 1 -4.644 1.489l-.186-.4a18.013 18.013 0 0 0 6.884-3.526h-5.121l-1.3.11-.2-.844 1.507.11h6.323zm2.753-7.524a3.711 3.711 0 0 0 -.2-1.414l.093-.11c1.467.292 1.873.424 1.873.641 0 .181-.181.292-.7.442v2.735l.075 2.147-.186.186-1.029.035.075-2.183v-2.479zm3.486-.919a3.361 3.361 0 0 0 -.256-1.467l.093-.11c1.507.274 1.856.4 1.856.641 0 .186-.2.331-.605.46v4.184l.075 2.333c0 .954-.57 1.524-2 1.617-.018-.495-.239-.809-1.228-1.012l.035-.477a10.546 10.546 0 0 0 1.635.128c.314 0 .4-.075.4-.495v-5.8z" transform="translate(-356.953 -266.905)"/><path d="m454.6 323.06c.826.663 1.3 1.321 1.3 1.856s-.256.862-.623.862c-.331 0-.513-.2-.605-.733a4.469 4.469 0 0 0 -.826-1.984h-1.321a11.109 11.109 0 0 1 -2.81 3.159l-.331-.292a11.055 11.055 0 0 0 2.616-4.312 4.377 4.377 0 0 0 .221-1.228l.128-.053c1.361.495 1.816.773 1.816 1.012 0 .186-.239.274-.862.274-.128.292-.274.57-.4.826h3.212l.791-1.012h.256l1.175 1.193v.442h-3.737zm-4.37 5.616c1.8.186 2.77.773 2.77 1.635a.561.561 0 0 1 -.552.623c-.256 0-.442-.093-.791-.57a4.42 4.42 0 0 0 -1.6-1.286zm5.417-.146c-.844 1.944-1.67 3.543-2.426 4.957a2.672 2.672 0 0 0 -.331 1.1 2.181 2.181 0 0 0 .239.844 2.829 2.829 0 0 1 .221 1.047c0 .641-.367.879-.791.879-.459 0-.791-.367-.791-1.012 0-.424.018-.641.018-1.065 0-.53-.256-.954-1.56-1.652l.146-.424a6.413 6.413 0 0 0 1.3.367c.221 0 .331-.053.68-.552 1.007-1.489 1.944-3.031 2.863-4.626zm-3.729-3.159c1.891.424 2.607 1.14 2.607 1.816 0 .424-.146.769-.552.769-.349 0-.513-.163-.773-.663a3.777 3.777 0 0 0 -1.507-1.542zm5.859 10.577v.954l-.181.186-1.065.035.093-4.644v-4.056a4.856 4.856 0 0 0 -.274-1.838l.11-.11c.588.256 1.065.513 1.6.809h1.781a14.753 14.753 0 0 0 .349-1.763 3.939 3.939 0 0 0 -.018-.791l.093-.075c1.56.46 1.926.663 1.926.9 0 .2-.163.314-.826.314-.2.349-.53.919-.879 1.414h3.119l.588-.716h.256c1.047.751 1.25.937 1.25 1.158 0 .186-.163.314-.7.495v4.28l.093 4.334-.181.186-1.082.035v-1.1h-6.049zm4.59-12.888c.826.623 1.339 1.228 1.339 1.8 0 .477-.256.751-.623.751-.292 0-.53-.2-.663-.733a4.689 4.689 0 0 0 -.826-1.816h-1.635a10.185 10.185 0 0 1 -2.528 2.938l-.331-.292a10.619 10.619 0 0 0 2.315-4.1 4.972 4.972 0 0 0 .221-1.228l.128-.053c1.361.495 1.8.733 1.8.972 0 .186-.239.274-.862.274a9.176 9.176 0 0 1 -.4.862h3.764l.826-1.065h.256l1.286 1.25v.442h-4.06zm1.449 4.847h-6.04v3.269h6.04zm0 3.892h-6.04v3.526h6.04z" transform="translate(-384.589 -266.632)"/><path d="m502.145 330.541a9.489 9.489 0 0 1 -2.479 6.552l-.367-.239c1.339-2.35 1.705-3.857 1.705-7.82v-2.589a5.394 5.394 0 0 0 -.274-1.944l.11-.11a11.848 11.848 0 0 1 1.542.826h3.177l.623-.733h.256c.972.773 1.14.99 1.14 1.158 0 .146-.186.292-.623.477v2.368l.093 2.881-.186.186-1.082.035v-1.047zm-.844-7.8-1.286.11-.221-.844 1.507.11h4.299l.844-1.047h.256l1.193 1.228v.442zm4.48 3.1h-3.6v2.735c0 .477 0 .919-.018 1.339h3.619v-4.075zm4.06 2.554c0 4.423-1.065 6.976-4.149 9.216l-.331-.292c2.368-2.293 3.287-4.811 3.287-8.92v-4.37a5.021 5.021 0 0 0 -.274-1.873l.11-.11a11.172 11.172 0 0 1 1.542.733 14.371 14.371 0 0 0 3.174-1.179 4.323 4.323 0 0 0 .954-.663h.128c1.3.809 1.652 1.065 1.652 1.3 0 .181-.093.256-.4.256a9.414 9.414 0 0 1 -1.082-.128 24.645 24.645 0 0 1 -4.608.954v3.415h4.259l.826-1.047h.256l1.175 1.228v.442h-2.66v6.04l.093 3.985-.181.186-1.175.035.093-4.206v-6.04h-2.682v1.029z" transform="translate(-412.447 -266.972)"/></g></g></svg>